v 0.000000 0.000000 -0.200000
v 0.100000 0.000000 -0.173205
v 0.173205 0.000000 -0.100000
v 0.173205 1.000000 -0.100000
v 0.200000 0.000000 0.000000
v 0.200000 1.000000 0.000000
v 0.173205 0.000000 0.100000
v 0.173205 1.000000 0.100000
v 0.100000 0.000000 0.173205
v 0.100000 1.000000 0.173205
v 0.000000 0.000000 0.200000
v -0.100000 0.000000 0.173205
v -0.100000 1.000000 0.173205
v -0.173205 0.000000 0.100000
v -0.173205 1.000000 0.100000
v -0.200000 0.000000 0.000000
v -0.200000 1.000000 0.000000
v -0.173205 0.000000 -0.100000
v -0.173205 1.000000 -0.100000
v -0.100000 0.000000 -0.173205
v -0.100000 1.000000 -0.173205
v 0.050000 1.173205 -0.086603
v 0.086603 1.100000 -0.150000
v 0.100000 1.000000 -0.173205
v 0.086603 1.173205 -0.050000
v 0.150000 1.100000 -0.086603
v -0.000000 1.200000 -0.000000
v 0.100000 1.173205 -0.000000
v 0.173205 1.100000 -0.000000
v 0.086603 1.173205 0.050000
v 0.150000 1.100000 0.086603
v 0.050000 1.173205 0.086602
v 0.086603 1.100000 0.150000
v 0.000000 1.173205 0.100000
v -0.000000 1.100000 0.173205
v -0.000000 1.000000 0.200000
v -0.050000 1.173205 0.086602
v -0.086603 1.100000 0.150000
v -0.086603 1.173205 0.050000
v -0.150000 1.100000 0.086602
v -0.100000 1.173205 -0.000000
v -0.173205 1.100000 -0.000000
v -0.086603 1.173205 -0.050000
v -0.150000 1.100000 -0.086603
v -0.050000 1.173205 -0.086603
v -0.086603 1.100000 -0.150000
v 0.000000 1.173205 -0.100000
v -0.000000 1.100000 -0.173205
v -0.000000 1.000000 -0.200000
vt 1.000000 1.000000
vt 0.916667 0.500000
vt 1.000000 0.500000
vt 0.916667 1.000000
vt 0.833333 0.500000
vt 0.833333 1.000000
vt 0.750000 0.500000
vt 0.750000 1.000000
vt 0.666667 0.500000
vt 0.666667 1.000000
vt 0.583333 0.500000
vt 0.583333 1.000000
vt 0.500000 0.500000
vt 0.500000 1.000000
vt 0.416667 0.500000
vt 0.416667 1.000000
vt 0.333333 0.500000
vt 0.333333 1.000000
vt 0.250000 0.500000
vt 0.250000 1.000000
vt 0.166667 0.500000
vt 0.166667 1.000000
vt 0.083333 0.500000
vt 0.083333 1.000000
vt 0.000000 0.500000
vt 0.750000 0.666667
vt 0.666667 0.500000
vt 0.750000 0.500000
vt 0.750000 0.833333
vt 0.708333 1.000000
vt 0.666667 0.833333
vt 0.666667 0.666667
vt 0.583333 0.666667
vt 0.583333 0.500000
vt 0.625000 1.000000
vt 0.583333 0.833333
vt 0.541667 1.000000
vt 0.500000 0.833333
vt 0.500000 0.666667
vt 0.500000 0.500000
vt 0.416667 0.666667
vt 0.416667 0.500000
vt 0.458333 1.000000
vt 0.416667 0.833333
vt 0.333333 0.666667
vt 0.333333 0.500000
vt 0.375000 1.000000
vt 0.333333 0.833333
vt 0.250000 0.666667
vt 0.250000 0.500000
vt 0.291667 1.000000
vt 0.250000 0.833333
vt 0.166667 0.666667
vt 0.166667 0.500000
vt 0.208333 1.000000
vt 0.166667 0.833333
vt 0.083333 0.666667
vt 0.083333 0.500000
vt 0.125000 1.000000
vt 0.083333 0.833333
vt 0.000000 0.500000
vt 0.041667 1.000000
vt 0.000000 0.833333
vt 0.000000 0.666667
vt 1.000000 0.666667
vt 0.916667 0.500000
vt 1.000000 0.500000
vt 1.000000 0.833333
vt 0.958333 1.000000
vt 0.916667 0.833333
vt 0.916667 0.666667
vt 0.833333 0.500000
vt 0.875000 1.000000
vt 0.833333 0.833333
vt 0.833333 0.666667
vt 0.791667 1.000000
vt 0.000000 1.000000
vn 0.0000 0.1278 -0.9918
vn 0.5000 0.0000 -0.8660
vn 0.0000 0.0000 -1.0000
vn 0.4959 0.1278 -0.8589
vn 0.8660 0.0000 -0.5000
vn 0.8589 0.1278 -0.4959
vn 1.0000 0.0000 0.0000
vn 0.9918 0.1278 0.0000
vn 0.8660 0.0000 0.5000
vn 0.8589 0.1278 0.4959
vn 0.5000 0.0000 0.8660
vn 0.4959 0.1278 0.8589
vn 0.0000 0.0000 1.0000
vn 0.0000 0.1278 0.9918
vn -0.5000 0.0000 0.8660
vn -0.4959 0.1278 0.8589
vn -0.8660 0.0000 0.5000
vn -0.8589 0.1278 0.4959
vn -1.0000 0.0000 0.0000
vn -0.9918 0.1278 0.0000
vn -0.8660 0.0000 -0.5000
vn -0.8589 0.1278 -0.4959
vn -0.5000 0.0000 -0.8660
vn -0.4959 0.1278 -0.8589
vn 0.0000 0.4823 -0.8760
vn 0.0000 0.8474 -0.5309
vn 0.0000 1.0000 0.0000
vn 0.2655 0.8474 -0.4598
vn 0.4380 0.4823 -0.7586
vn 0.7586 0.4823 -0.4380
vn 0.4598 0.8474 -0.2655
vn 0.5309 0.8474 0.0000
vn 0.8760 0.4823 0.0000
vn 0.7586 0.4823 0.4380
vn 0.4598 0.8474 0.2655
vn 0.4380 0.4823 0.7586
vn 0.2655 0.8474 0.4598
vn 0.0000 0.4823 0.8760
vn 0.0000 0.8474 0.5309
vn -0.4380 0.4823 0.7586
vn -0.2654 0.8474 0.4598
vn -0.7586 0.4823 0.4380
vn -0.4598 0.8474 0.2655
vn -0.5309 0.8474 0.0000
vn -0.8760 0.4823 0.0000
vn -0.4598 0.8474 -0.2654
vn -0.7586 0.4823 -0.4380
vn -0.2654 0.8474 -0.4598
vn -0.4380 0.4823 -0.7586
s 1
f 49/1/1 2/2/2 1/3/3
f 24/4/4 3/5/5 2/2/2
f 4/6/6 5/7/7 3/5/5
f 6/8/8 7/9/9 5/7/7
f 8/10/10 9/11/11 7/9/9
f 10/12/12 11/13/13 9/11/11
f 36/14/14 12/15/15 11/13/13
f 13/16/16 14/17/17 12/15/15
f 15/18/18 16/19/19 14/17/17
f 17/20/20 18/21/21 16/19/19
f 19/22/22 20/23/23 18/21/21
f 21/24/24 1/25/3 20/23/23
f 48/26/25 24/27/4 49/28/1
f 47/29/26 27/30/27 22/31/28
f 47/29/26 23/32/29 48/26/25
f 24/27/4 26/33/30 4/34/6
f 22/31/28 27/35/27 25/36/31
f 22/31/28 26/33/30 23/32/29
f 25/36/31 27/37/27 28/38/32
f 26/33/30 28/38/32 29/39/33
f 26/33/30 6/40/8 4/34/6
f 28/38/32 31/41/34 29/39/33
f 6/40/8 31/41/34 8/42/10
f 28/38/32 27/43/27 30/44/35
f 30/44/35 33/45/36 31/41/34
f 31/41/34 10/46/12 8/42/10
f 30/44/35 27/47/27 32/48/37
f 32/48/37 35/49/38 33/45/36
f 33/45/36 36/50/14 10/46/12
f 32/48/37 27/51/27 34/52/39
f 34/52/39 38/53/40 35/49/38
f 36/50/14 38/53/40 13/54/16
f 34/52/39 27/55/27 37/56/41
f 37/56/41 40/57/42 38/53/40
f 38/53/40 15/58/18 13/54/16
f 37/56/41 27/59/27 39/60/43
f 40/57/42 17/61/20 15/58/18
f 39/60/43 27/62/27 41/63/44
f 39/60/43 42/64/45 40/57/42
f 42/65/45 19/66/22 17/67/20
f 41/68/44 27/69/27 43/70/46
f 41/68/44 44/71/47 42/65/45
f 44/71/47 21/72/24 19/66/22
f 43/70/46 27/73/27 45/74/48
f 43/70/46 46/75/49 44/71/47
f 46/75/49 49/28/1 21/72/24
f 45/74/48 27/76/27 47/29/26
f 45/74/48 48/26/25 46/75/49
f 49/1/1 24/4/4 2/2/2
f 24/4/4 4/6/6 3/5/5
f 4/6/6 6/8/8 5/7/7
f 6/8/8 8/10/10 7/9/9
f 8/10/10 10/12/12 9/11/11
f 10/12/12 36/14/14 11/13/13
f 36/14/14 13/16/16 12/15/15
f 13/16/16 15/18/18 14/17/17
f 15/18/18 17/20/20 16/19/19
f 17/20/20 19/22/22 18/21/21
f 19/22/22 21/24/24 20/23/23
f 21/24/24 49/77/1 1/25/3
f 48/26/25 23/32/29 24/27/4
f 47/29/26 22/31/28 23/32/29
f 24/27/4 23/32/29 26/33/30
f 22/31/28 25/36/31 26/33/30
f 26/33/30 25/36/31 28/38/32
f 26/33/30 29/39/33 6/40/8
f 28/38/32 30/44/35 31/41/34
f 6/40/8 29/39/33 31/41/34
f 30/44/35 32/48/37 33/45/36
f 31/41/34 33/45/36 10/46/12
f 32/48/37 34/52/39 35/49/38
f 33/45/36 35/49/38 36/50/14
f 34/52/39 37/56/41 38/53/40
f 36/50/14 35/49/38 38/53/40
f 37/56/41 39/60/43 40/57/42
f 38/53/40 40/57/42 15/58/18
f 40/57/42 42/64/45 17/61/20
f 39/60/43 41/63/44 42/64/45
f 42/65/45 44/71/47 19/66/22
f 41/68/44 43/70/46 44/71/47
f 44/71/47 46/75/49 21/72/24
f 43/70/46 45/74/48 46/75/49
f 46/75/49 48/26/25 49/28/1
f 45/74/48 47/29/26 48/26/25
